PathFileType	4	(x/y/z)	S09_M20_T02
DataRate	CameraRate	NumFrames	NumMarkers	Units	OrigDataRate	OrigDataStartFrame	OrigNumFrames
240	240	5	51	mm	240	69	551
Frame#	Time	Sternum			R.Acromium			L.Acromium			Top.Head			R.ASIS			L.ASIS			R.PSIS			L.PSIS			R.Great.Tro			L.Great.Tro			R.Iliac.Crest			L.Iliac.Crest			V.Sacral			R.Thigh.Upper.Post			R.Thigh.Lower.Ant			R.Thigh.Lower.Post			R.Thigh.Upper.Ant			R.Knee.Lat			R.Knee.Med			R.Shank.Upper.Post			R.Shank.Lower.Ant			R.Shank.Lower.Post			R.Shank.Upper.Ant			R.Ankle.Lat			R.Ankle.Med			R.Heel.Upper			R.Heel.Med			R.Heel.Lat			R.Toe.Lat			R.Toe.Med			R.Toe.Tip			L.Thigh.Upper.Post			L.Thigh.Lower.Ant			L.Thigh.Lower.Post			L.Thigh.Upper.Ant			L.Knee.Lat			L.Knee.Med			L.Shank.Upper.Post			L.Shank.Lower.Ant			L.Shank.Lower.Post			L.Shank.Upper.Ant			L.Ankle.Lat			L.Ankle.Med			L.Heel.Upper			L.Heel.Med			L.Heel.Lat			L.Toe.Lat			L.Toe.Med			L.Toe.Tip			Cervical.Spine			Back			
		X1	Y1	Z1	X2	Y2	Z2	X3	Y3	Z3	X4	Y4	Z4	X5	Y5	Z5	X6	Y6	Z6	X7	Y7	Z7	X8	Y8	Z8	X9	Y9	Z9	X10	Y10	Z10	X11	Y11	Z11	X12	Y12	Z12	X13	Y13	Z13	X14	Y14	Z14	X15	Y15	Z15	X16	Y16	Z16	X17	Y17	Z17	X18	Y18	Z18	X19	Y19	Z19	X20	Y20	Z20	X21	Y21	Z21	X22	Y22	Z22	X23	Y23	Z23	X24	Y24	Z24	X25	Y25	Z25	X26	Y26	Z26	X27	Y27	Z27	X28	Y28	Z28	X29	Y29	Z29	X30	Y30	Z30	X31	Y31	Z31	X32	Y32	Z32	X33	Y33	Z33	X34	Y34	Z34	X35	Y35	Z35	X36	Y36	Z36	X37	Y37	Z37	X38	Y38	Z38	X39	Y39	Z39	X40	Y40	Z40	X41	Y41	Z41	X42	Y42	Z42	X43	Y43	Z43	X44	Y44	Z44	X45	Y45	Z45	X46	Y46	Z46	X47	Y47	Z47	X48	Y48	Z48	X49	Y49	Z49	X50	Y50	Z50	X51	Y51	Z51	

69	0.28333	-508.91	1177.5	310.1	-654.25	1418.3	457.74	-655.1	1420.8	150.2	-592.34	1717.5	297.98	-559.21	1002.3	417.51	-545.09	1015.6	170.3	-774.06	1025.4	323.55	-762.4	1033.3	236.61	-651.25	911.14	478.2	-602.91	924.94	94.53	-653.8	1076.4	459.35	-651.99	1107	130.18	-786.71	994.76	272.58	-634.79	667.09	481.74	-551.67	568.27	479.68	-630.52	573.01	468.07	-563.84	658.15	488.43	-583.97	486.92	477.48	-570.27	461.01	354.66	-755.86	421.83	459.71	-762.09	331.14	454.12	-815.41	376.7	441.94	-708.34	379.24	471.83	-947.68	243.01	411.64	NaN	NaN	NaN	-988.17	279.61	345.04	-994.15	250.48	312.28	-1018.5	258.67	372.98	-952.18	127.12	455.67	-887.71	92.087	369.99	-862.99	64.956	425.49	-605.97	654.19	149.76	-503.23	581.25	166.23	-571.83	573.51	178.67	-534.92	659.17	134.14	-502.16	504.4	181	-494.47	528.27	314.56	-546.2	373.35	171.03	-485.52	283.51	193.82	-547.35	297.09	180.97	-484.48	360.86	184.66	-538.39	101.15	214.06	-528.47	97.284	307.16	-613.32	72.321	264.71	-600.99	48.137	298.41	-612.6	42.657	237.64	-437.69	42.104	187.54	-401.74	42.014	297.9	-350.01	58.327	238.69	-731.03	1464.6	310.46	-771	1196.7	291.61
70	0.2875	-504.3	1178.7	309.93	-649.49	1419.5	457.37	-650.13	1421.9	149.86	-586.93	1718.5	297.82	-554.21	1003.7	416.73	-540.71	1016.9	169.47	-769.32	1026.3	323.43	-757.86	1034.2	236.48	-645.75	912.44	477.74	-598.87	925.98	93.933	-648.84	1077.5	458.98	-647.61	1108.2	129.79	-782.02	995.64	272.51	-626.85	668.53	481.71	-542.46	570.72	479.98	-621.46	574.49	468.17	-555.81	660.43	488.52	-573.96	488.98	477.63	-559.02	463.48	354.87	-745.16	422.42	459.32	-750.58	331.67	454.34	-804.28	376.66	441.66	-697.32	380.34	471.93	-935.14	241.17	411.74	NaN	NaN	NaN	-976.31	276.96	345.09	-981.72	247.62	312.34	-1006.3	255.52	373.1	-937.58	125.4	456.02	-872.33	91.385	370.44	-847.11	64.952	426	-603.53	655.13	149.06	-501.38	581.44	165.38	-569.87	574.17	177.95	-532.63	659.56	133.35	-500.81	504.54	180.2	-492.4	528.51	313.66	-545.49	373.55	170.56	-485.03	283.5	193.21	-546.84	297.34	180.58	-483.75	360.85	183.95	-538.25	101.2	213.95	-528.18	97.545	307.02	-613.25	72.442	264.72	-600.95	48.239	298.4	-612.53	42.812	237.63	-437.63	41.966	187.42	-401.63	42.001	297.77	-349.86	57.999	238.53	-726.08	1465.8	310.04	-766.24	1197.9	291.22
71	0.29167	-499.7	1179.9	309.76	-644.73	1420.8	457.02	-645.19	1423	149.52	-581.56	1719.5	297.64	-549.2	1005.1	415.92	-536.37	1018.2	168.61	-764.58	1027.1	323.35	-753.35	1035.1	236.39	-640.23	913.7	477.31	-594.83	927	93.317	-643.85	1078.6	458.61	-643.28	1109.3	129.41	-777.34	996.44	272.48	-619.01	669.96	481.68	-533.38	573.16	480.25	-612.51	575.97	468.25	-547.88	662.67	488.6	-564.08	491.05	477.75	-547.88	465.97	355.06	-734.56	422.95	458.93	-739.12	332.15	454.57	-793.21	376.55	441.38	-686.38	381.43	472.02	-922.56	239.25	411.88	NaN	NaN	NaN	-964.39	274.14	345.16	-969.25	244.59	312.45	-994.14	252.25	373.25	-922.96	123.67	456.46	-856.97	90.607	371.01	-831.26	64.915	426.63	-601.12	656.05	148.4	-499.59	581.6	164.55	-567.97	574.82	177.26	-530.36	659.93	132.58	-499.51	504.66	179.43	-490.39	528.71	312.79	-544.83	373.74	170.12	-484.57	283.49	192.63	-546.37	297.56	180.23	-483.07	360.83	183.26	-538.12	101.24	213.85	-527.9	97.795	306.9	-613.19	72.556	264.75	-600.91	48.331	298.39	-612.46	42.958	237.62	-437.57	41.838	187.32	-401.53	41.989	297.65	-349.71	57.692	238.37	-721.14	1467	309.63	-761.49	1199.1	290.87
72	0.29583	-495.11	1181.1	309.58	-640	1421.9	456.69	-640.27	1424	149.18	-576.22	1720.5	297.45	-544.19	1006.4	415.08	-532.06	1019.4	167.71	-759.86	1027.9	323.31	-748.85	1035.9	236.33	-634.67	914.92	476.9	-590.77	927.98	92.685	-638.83	1079.6	458.22	-638.99	1110.4	129.03	-772.66	997.18	272.49	-611.26	671.36	481.64	-524.43	575.56	480.48	-603.67	577.44	468.3	-540.05	664.88	488.67	-554.32	493.11	477.83	-536.91	468.47	355.23	-724.04	423.43	458.53	-727.69	332.58	454.79	-782.19	376.35	441.11	-675.51	382.48	472.09	-909.96	237.24	412.04	NaN	NaN	NaN	-952.4	271.18	345.22	-956.75	241.39	312.6	-981.86	248.86	373.43	-908.32	121.94	457	-841.63	89.759	371.7	-815.43	64.854	427.39	-598.74	656.96	147.76	-497.83	581.74	163.76	-566.12	575.45	176.58	-528.12	660.27	131.83	-498.27	504.77	178.69	-488.45	528.88	311.94	-544.21	373.92	169.72	-484.14	283.47	192.08	-545.94	297.77	179.92	-482.41	360.81	182.59	-538	101.28	213.77	-527.63	98.033	306.78	-613.13	72.662	264.78	-600.87	48.412	298.39	-612.4	43.098	237.62	-437.51	41.718	187.22	-401.43	41.979	297.54	-349.58	57.406	238.22	-716.22	1468.1	309.23	-756.75	1200.3	290.54
73	0.3	-490.53	1182.3	309.4	-635.27	1423.1	456.37	-635.37	1424.9	148.84	-570.92	1721.4	297.26	-539.17	1007.6	414.2	-527.76	1020.6	166.79	-755.14	1028.6	323.31	-744.37	1036.6	236.31	-629.09	916.11	476.52	-586.7	928.94	92.04	-633.77	1080.6	457.83	-634.75	1111.4	128.67	-768	997.86	272.53	-603.6	672.73	481.59	-515.62	577.92	480.66	-594.95	578.89	468.33	-532.32	667.04	488.72	-544.7	495.16	477.87	-526.13	470.95	355.35	-713.6	423.84	458.12	-716.3	332.95	455	-771.24	376.06	440.84	-664.7	383.49	472.13	-897.33	235.15	412.23	NaN	NaN	NaN	-940.35	268.05	345.29	-944.23	238.02	312.78	-969.52	245.35	373.62	-893.65	120.2	457.63	-826.29	88.847	372.5	-799.62	64.774	428.27	-596.39	657.85	147.17	-496.13	581.85	163	-564.33	576.08	175.95	-525.9	660.59	131.12	-497.08	504.86	177.98	-486.56	529	311.13	-543.61	374.09	169.36	-483.74	283.43	191.56	-545.54	297.97	179.64	-481.79	360.78	181.96	-537.88	101.32	213.71	-527.37	98.258	306.69	-613.09	72.761	264.82	-600.84	48.482	298.4	-612.34	43.23	237.62	-437.46	41.608	187.13	-401.34	41.97	297.43	-349.46	57.141	238.08	-711.31	1469.2	308.86	-752.02	1201.4	290.23
